<svg xmlns="http://www.w3.org/2000/svg" viewBox="0 0 96 96" role="img" aria-label="TenderNotes">
  <rect width="96" height="96" rx="22" fill="#F7EFE6"/>
  <path d="M27 22h33.5c6.4 0 11.5 5.1 11.5 11.5v29C72 68.9 66.9 74 60.5 74h-33c-2 0-3.5-1.6-3.5-3.5v-45c0-2 1.6-3.5 3.5-3.5Z" fill="#FFFFFF" stroke="#D9C4AE" stroke-width="3"/>
  <path d="M36 37h24M36 49h19" stroke="#2F746F" stroke-width="5" stroke-linecap="round"/>
  <path d="M38.5 65c-6.8-5-11.2-9.4-11.2-14.2 0-3.2 2.5-5.8 5.8-5.8 2.2 0 4.1 1.1 5.4 2.8 1.3-1.7 3.2-2.8 5.4-2.8 3.3 0 5.8 2.6 5.8 5.8 0 4.8-4.4 9.2-11.2 14.2Z" fill="#D86F58"/>
  <path d="m58 63 5.2 5.2L75 56.4" fill="none" stroke="#2F746F" stroke-width="6" stroke-linecap="round" stroke-linejoin="round"/>
</svg>
